<svg width="477" height="596" viewBox="0 0 477 596" fill="none" xmlns="http://www.w3.org/2000/svg">
<path d="M218 405C218 433.167 185.988 416.5 146.5 416.5C107.012 416.5 75 433.167 75 405C75 376.834 107.012 355 146.5 355C185.988 355 218 376.834 218 405Z" fill="#908880"/>
<path d="M389 401C389 429.167 356.988 412.5 317.5 412.5C278.012 412.5 246 429.167 246 401C246 372.834 278.012 351 317.5 351C356.988 351 389 372.834 389 401Z" fill="#908880"/>
<path d="M59.3851 138.944C70.8354 166.781 103.098 179.894 131.445 168.234C159.792 156.574 173.49 124.555 162.04 96.7185C150.589 68.882 104.632 22.4752 76.285 34.1356C47.9377 45.7959 47.9348 111.108 59.3851 138.944Z" fill="#9F978E"/>
<path d="M95.2956 134.24C101.218 148.638 117.82 155.457 132.377 149.469C146.933 143.481 153.933 126.955 148.01 112.557C142.088 98.1585 118.402 74.1198 103.846 80.1075C89.2889 86.0953 89.3731 119.842 95.2956 134.24Z" fill="#4C4C4C"/>
<path d="M46.5288 100.863C52.4233 52.3836 62.6532 41.7557 81.3292 31.9403C38.2087 94.197 55.7475 124.905 86.7137 169.795C64.5089 156.028 53.329 143.605 46.5288 100.863Z" fill="#B2B2B2"/>
<path d="M404.896 133.901C392.411 157.684 360.064 165.297 332.645 150.905C305.227 136.513 293.12 105.565 305.605 81.7817C318.089 57.9982 365.368 21.9394 392.787 36.3317C420.205 50.7241 417.38 110.117 404.896 133.901Z" fill="#9F978E"/>
<path d="M369.726 124.824C363.269 137.125 346.62 141.107 332.54 133.716C318.461 126.325 312.281 110.361 318.739 98.0597C325.196 85.7579 349.568 67.0633 363.648 74.4539C377.728 81.8446 376.183 112.522 369.726 124.824Z" fill="#4C4C4C"/>
<path d="M419.208 100.989C415.501 56.1153 405.885 45.0832 387.913 33.6613C427.693 96.0391 409.087 121.62 376.64 158.303C399.109 148.751 410.659 138.949 419.208 100.989Z" fill="#B2B2B2"/>
<path d="M366.133 473.076C364.182 526.315 307.621 567.46 239.8 564.974C171.979 562.488 118.582 517.314 120.533 464.075C122.484 410.835 181.379 306.015 249.2 308.501C317.021 310.986 368.084 419.837 366.133 473.076Z" fill="#9F978E"/>
<path d="M331.495 442.405C329.996 483.289 289.208 514.981 240.391 513.192C191.574 511.403 153.215 476.809 154.713 435.925C156.212 395.041 198.792 314.45 247.609 316.24C296.426 318.029 332.993 401.521 331.495 442.405Z" fill="#B2B2B2"/>
<path d="M237 373C327.5 373 392.743 331.194 436 282C419 214 395.881 173.513 363.486 144.267C322.872 107.601 277.44 92.4182 237 81C189.57 98.6969 152.125 118.538 122 144.267C76 173.5 67.2464 220.79 47 282C92.1733 343.212 146.542 362.734 237 373Z" fill="#9F978E"/>
<path fill-rule="evenodd" clip-rule="evenodd" d="M77.9368 314.595C107.353 330.729 174.365 297.509 204.366 273.765C207.115 269.84 209.77 266.29 212.248 262.977L212.249 262.976L212.249 262.976C228.675 241.013 237.301 229.478 213.854 188.211C183.828 150.696 144.514 168.508 123.224 198.687C118.758 205.019 112.808 212.324 106.415 220.173C84.7965 246.718 58.1148 279.478 66.6223 301.797C69.8802 306.222 73.6926 310.488 77.9368 314.595Z" fill="#4C4C4C"/>
<path d="M351.388 184.301C381.743 212.902 429.623 283.385 405.6 311.186C381.577 338.988 321.83 292.164 288.881 275.479C255.931 258.795 232.602 222.483 265.362 187.329C308.436 153.738 318.711 167.893 351.388 184.301Z" fill="#4C4C4C"/>
<path d="M237.745 81C114.382 111.328 88.2305 152.781 65 227C219.869 49.6144 300.133 113.242 418 227C380.582 142.626 347.705 100.98 237.745 81Z" fill="#B2B2B2"/>
<path d="M189.889 156.81C149.799 157.625 137.534 170.934 122.616 196.782C187.928 143.509 205.047 174.244 228 227C225.904 192.151 220.567 173.717 189.889 156.81Z" fill="#B2B2B2"/>
<path d="M287.347 158.338C251.905 181.223 248.282 198.799 249.218 228C278.237 148.654 310.557 164.052 360.276 194.046C339.131 166.99 324.162 155.021 287.347 158.338Z" fill="#B2B2B2"/>
<ellipse cx="171.077" cy="234.217" rx="21.5" ry="34" transform="rotate(-10 171.077 234.217)" fill="white"/>
<ellipse cx="304.077" cy="234.217" rx="21.5" ry="34" transform="rotate(10 304.077 234.217)" fill="white"/>
<ellipse cx="178" cy="247.5" rx="14" ry="13.5" fill="black"/>
<ellipse cx="297" cy="247.5" rx="14" ry="13.5" fill="black"/>
<ellipse cx="290" cy="243" rx="7" ry="4" fill="white"/>
<ellipse cx="290" cy="243" rx="7" ry="4" fill="white"/>
<ellipse cx="290" cy="243" rx="7" ry="4" fill="white"/>
<ellipse cx="171" cy="243" rx="7" ry="4" fill="white"/>
<ellipse cx="171" cy="243" rx="7" ry="4" fill="white"/>
<ellipse cx="171" cy="243" rx="7" ry="4" fill="white"/>
<ellipse cx="240" cy="323.805" rx="71" ry="49.1947" fill="#B2B2B2"/>
<path d="M264 285.029C261 297.177 251.473 297.215 240 301.239C225.373 297.215 216 294.92 216 285.029C216 274.062 226.745 271 240 271C253.255 271 264 274.062 264 285.029Z" fill="black"/>
<ellipse cx="228" cy="277.319" rx="4" ry="2.70796" fill="white"/>
<path fill-rule="evenodd" clip-rule="evenodd" d="M197 300.788C196.642 313.185 206.064 323.463 218.046 323.745C230.028 324.028 240.032 314.207 240.391 301.81L239.391 301.786C239.048 313.664 229.473 323.014 218.075 322.746C206.677 322.477 197.656 312.689 198 300.811L197 300.788Z" fill="white" fill-opacity="0.02"/>
<path d="M197 300.788L197.043 299.288L195.544 299.253L195.5 300.752L197 300.788ZM240.391 301.81L241.89 301.845L241.934 300.346L240.434 300.311L240.391 301.81ZM239.391 301.786L239.434 300.287L237.935 300.252L237.891 301.751L239.391 301.786ZM198 300.811L199.499 300.847L199.543 299.347L198.043 299.312L198 300.811ZM218.09 322.246C206.984 321.984 198.164 312.441 198.5 300.823L195.5 300.752C195.119 313.929 205.145 324.942 218.003 325.245L218.09 322.246ZM238.891 301.775C238.555 313.392 229.196 322.508 218.09 322.246L218.003 325.245C230.861 325.548 241.509 315.022 241.89 301.845L238.891 301.775ZM240.434 300.311L239.434 300.287L239.348 303.286L240.347 303.309L240.434 300.311ZM218.032 324.245C230.305 324.534 240.525 314.479 240.891 301.822L237.891 301.751C237.571 312.848 228.641 321.494 218.119 321.246L218.032 324.245ZM196.5 300.776C196.134 313.433 205.758 323.956 218.032 324.245L218.119 321.246C207.596 320.999 199.178 311.944 199.499 300.847L196.5 300.776ZM198.043 299.312L197.043 299.288L196.957 302.287L197.956 302.311L198.043 299.312Z" fill="black"/>
<path fill-rule="evenodd" clip-rule="evenodd" d="M239.639 300.716C239.286 312.927 248.259 323.044 259.68 323.313C271.102 323.582 280.647 313.901 281 301.69L280 301.667C279.661 313.39 270.517 322.568 259.709 322.313C248.902 322.059 240.3 312.462 240.639 300.739L239.639 300.716Z" fill="white" fill-opacity="0.02"/>
<path d="M239.639 300.716L239.683 299.216L238.183 299.181L238.14 300.68L239.639 300.716ZM281 301.69L282.5 301.726L282.543 300.226L281.043 300.191L281 301.69ZM280 301.667L280.044 300.167L278.544 300.132L278.501 301.631L280 301.667ZM240.639 300.739L242.139 300.775L242.182 299.275L240.682 299.24L240.639 300.739ZM259.724 321.813C249.224 321.566 240.807 312.23 241.139 300.751L238.14 300.68C237.766 313.623 247.294 324.521 259.637 324.812L259.724 321.813ZM279.5 301.655C279.169 313.134 270.224 322.061 259.724 321.813L259.637 324.812C271.98 325.103 282.125 314.668 282.5 301.726L279.5 301.655ZM281.043 300.191L280.044 300.167L279.957 303.166L280.957 303.19L281.043 300.191ZM259.666 323.813C271.393 324.089 281.14 314.158 281.5 301.702L278.501 301.631C278.183 312.621 269.64 321.047 259.753 320.814L259.666 323.813ZM239.14 300.704C238.779 313.16 247.939 323.536 259.666 323.813L259.753 320.814C249.865 320.581 241.821 311.764 242.139 300.775L239.14 300.704ZM240.682 299.24L239.683 299.216L239.596 302.215L240.596 302.239L240.682 299.24Z" fill="black"/>
<path d="M146.586 391.336C154.646 409.511 125.458 414.927 92.894 429.368C60.3302 443.809 36.722 461.807 28.6618 443.632C20.6016 425.457 35.3982 387.589 67.9621 373.148C100.526 358.707 138.526 373.161 146.586 391.336Z" fill="#9F978E"/>
<path d="M106.392 374.702C113.467 390.658 106.678 423.243 91.0272 430.183C75.3764 437.124 48.5635 419.441 41.4877 403.486C34.4119 387.53 75.3764 437.124 91.0272 430.183C106.678 423.243 99.3158 358.747 106.392 374.702Z" fill="#4C4C4C"/>
<path d="M455.418 444.552C446.813 462.476 423.759 443.774 391.645 428.357C359.532 412.94 330.52 406.646 339.125 388.723C347.729 370.799 386.148 357.498 418.261 372.915C450.375 388.331 464.023 426.628 455.418 444.552Z" fill="#9F978E"/>
<path d="M442.006 403.171C434.452 418.906 405.248 434.875 389.813 427.465C374.379 420.055 370.446 388.178 377.999 372.443C385.553 356.709 374.379 420.055 389.813 427.465C405.248 434.875 449.56 387.436 442.006 403.171Z" fill="#4C4C4C"/>
<path d="M201 507.5C201 537.047 176.376 596 146 596C115.624 596 91 537.047 91 507.5C91 477.953 115.624 457 146 457C176.376 457 201 477.953 201 507.5Z" fill="#908880"/>
<path d="M201 507.5C201 537.047 176.376 596 146 596C115.624 596 91 537.047 91 507.5C91 477.953 115.624 457 146 457C176.376 457 201 477.953 201 507.5Z" fill="#908880"/>
<path d="M173.627 537.828C173.408 552.717 159.547 582.227 142.986 581.984C126.425 581.742 113.436 551.837 113.654 536.948C113.872 522.058 127.453 511.697 144.014 511.94C160.575 512.183 173.845 522.938 173.627 537.828Z" fill="#B2B2B2"/>
<path d="M173.627 537.828C173.408 552.717 159.547 582.227 142.986 581.984C126.425 581.742 113.436 551.837 113.654 536.948C113.872 522.058 127.453 511.697 144.014 511.94C160.575 512.183 173.845 522.938 173.627 537.828Z" fill="#B2B2B2"/>
<path d="M160.935 496.942C164.407 491.453 176.36 483.678 182.557 487.598C188.754 491.518 186.849 505.649 183.377 511.138C179.904 516.628 172.418 517.343 166.221 513.423C160.024 509.503 157.462 502.432 160.935 496.942Z" fill="#B2B2B2"/>
<path d="M160.935 496.942C164.407 491.453 176.36 483.678 182.557 487.598C188.754 491.518 186.849 505.649 183.377 511.138C179.904 516.628 172.418 517.343 166.221 513.423C160.024 509.503 157.462 502.432 160.935 496.942Z" fill="#B2B2B2"/>
<path d="M103.799 506.032C101.529 500.356 101.775 487.121 107.666 484.765C113.557 482.41 122.861 491.825 125.131 497.501C127.401 503.177 124.235 509.112 118.345 511.468C112.454 513.824 106.069 511.708 103.799 506.032Z" fill="#B2B2B2"/>
<path d="M103.799 506.032C101.529 500.356 101.775 487.121 107.666 484.765C113.557 482.41 122.861 491.825 125.131 497.501C127.401 503.177 124.235 509.112 118.345 511.468C112.454 513.824 106.069 511.708 103.799 506.032Z" fill="#B2B2B2"/>
<path d="M129.983 490.879C130.558 484.409 137.626 472.026 144.93 472.675C152.234 473.324 157.008 486.76 156.433 493.23C155.858 499.7 149.529 503.762 142.225 503.113C134.921 502.464 129.408 497.35 129.983 490.879Z" fill="#B2B2B2"/>
<path d="M129.983 490.879C130.558 484.409 137.626 472.026 144.93 472.675C152.234 473.324 157.008 486.76 156.433 493.23C155.858 499.7 149.529 503.762 142.225 503.113C134.921 502.464 129.408 497.35 129.983 490.879Z" fill="#B2B2B2"/>
<path d="M396 502.5C396 532.047 371.376 591 341 591C310.624 591 286 532.047 286 502.5C286 472.953 310.624 452 341 452C371.376 452 396 472.953 396 502.5Z" fill="#908880"/>
<path d="M396 502.5C396 532.047 371.376 591 341 591C310.624 591 286 532.047 286 502.5C286 472.953 310.624 452 341 452C371.376 452 396 472.953 396 502.5Z" fill="#908880"/>
<path d="M368.627 532.828C368.408 547.717 354.547 577.227 337.986 576.984C321.425 576.742 308.436 546.837 308.654 531.948C308.872 517.058 322.453 506.697 339.014 506.94C355.575 507.183 368.845 517.938 368.627 532.828Z" fill="#B2B2B2"/>
<path d="M368.627 532.828C368.408 547.717 354.547 577.227 337.986 576.984C321.425 576.742 308.436 546.837 308.654 531.948C308.872 517.058 322.453 506.697 339.014 506.94C355.575 507.183 368.845 517.938 368.627 532.828Z" fill="#B2B2B2"/>
<path d="M355.935 491.942C359.407 486.453 371.36 478.678 377.557 482.598C383.754 486.518 381.849 500.649 378.377 506.138C374.904 511.628 367.418 512.343 361.221 508.423C355.024 504.503 352.462 497.432 355.935 491.942Z" fill="#B2B2B2"/>
<path d="M355.935 491.942C359.407 486.453 371.36 478.678 377.557 482.598C383.754 486.518 381.849 500.649 378.377 506.138C374.904 511.628 367.418 512.343 361.221 508.423C355.024 504.503 352.462 497.432 355.935 491.942Z" fill="#B2B2B2"/>
<path d="M298.799 501.032C296.529 495.356 296.775 482.121 302.666 479.765C308.557 477.41 317.861 486.825 320.131 492.501C322.401 498.177 319.235 504.112 313.345 506.468C307.454 508.824 301.069 506.708 298.799 501.032Z" fill="#B2B2B2"/>
<path d="M298.799 501.032C296.529 495.356 296.775 482.121 302.666 479.765C308.557 477.41 317.861 486.825 320.131 492.501C322.401 498.177 319.235 504.112 313.345 506.468C307.454 508.824 301.069 506.708 298.799 501.032Z" fill="#B2B2B2"/>
<path d="M324.983 485.879C325.558 479.409 332.626 467.026 339.93 467.675C347.234 468.324 352.008 481.76 351.433 488.23C350.858 494.7 344.529 498.762 337.225 498.113C329.921 497.464 324.408 492.35 324.983 485.879Z" fill="#B2B2B2"/>
<path d="M324.983 485.879C325.558 479.409 332.626 467.026 339.93 467.675C347.234 468.324 352.008 481.76 351.433 488.23C350.858 494.7 344.529 498.762 337.225 498.113C329.921 497.464 324.408 492.35 324.983 485.879Z" fill="#B2B2B2"/>
</svg>
